<?xml version="1.0" encoding="UTF-8"?>
<!DOCTYPE svg PUBLIC "-//W3C//DTD SVG 1.1//EN" "http://www.w3.org/Graphics/SVG/1.1/DTD/svg11.dtd">
<!-- Creator: CorelDRAW -->
<svg xmlns="http://www.w3.org/2000/svg" xml:space="preserve" width="230mm" height="210mm" version="1.1" style="shape-rendering:geometricPrecision; text-rendering:geometricPrecision; image-rendering:optimizeQuality; fill-rule:evenodd; clip-rule:evenodd"
viewBox="0 0 23000 21000"
 xmlns:xlink="http://www.w3.org/1999/xlink"
 xmlns:xodm="http://www.corel.com/coreldraw/odm/2003">
 <defs>
  <style type="text/css">
   <![CDATA[
    .str1 {stroke:#2D2E28;stroke-width:1270;stroke-miterlimit:22.9256}
    .str0 {stroke:black;stroke-width:20;stroke-miterlimit:22.9256}
    .str2 {stroke:#2D2E28;stroke-width:931.33;stroke-linecap:round;stroke-miterlimit:22.9256}
    .fil4 {fill:none}
    .fil2 {fill:#2D2E28}
    .fil3 {fill:#FEB2A2}
    .fil1 {fill:white}
    .fil0 {fill:white}
   ]]>
  </style>
 </defs>
 <g id="Camada_x0020_1">
  <metadata id="CorelCorpID_0Corel-Layer"/>
  <path class="fil0" d="M3874.88 9650.64c-35.84,-4.75 -71.48,-11.24 -106.8,-19.45l-1846.97 -290.53c-236.74,-36.69 -463.62,-149.19 -641.28,-336.44 -426.48,-449.51 -407.82,-1159.65 41.7,-1586.14 274.6,-260.52 560.27,-368.58 905.31,-300.13l1972.63 312.46c90.99,14.41 180.49,40.04 266.26,76.8 63.32,-152.49 130.73,-302.87 202.05,-450.98 -61.79,-27.46 -121.15,-60.49 -177.23,-98.73l-1616.87 -938.85c-207.44,-119.83 -378.28,-306.77 -476.19,-545.59 -235.04,-573.34 39.2,-1228.65 612.53,-1463.69 350.24,-143.57 655.66,-141 952.58,47.6l1726.08 1004.76c63.86,37.17 124.23,80.72 180.01,130.19 106.39,-127.51 216.25,-252.04 329.4,-373.44 -39.1,-42.98 -74.93,-89.01 -107.05,-137.69l-1139.9 -1482c-146.5,-189.56 -233.66,-427.33 -233.66,-685.45 0,-619.64 502.31,-1121.95 1121.95,-1121.95 378.53,0 660.15,118.24 863.34,405.37l1215.22 1583.42c1404.35,-904.51 3076.26,-1429.37 4870.54,-1429.37 1461.41,0 2893.62,350.99 4185.5,1029.83 3527.66,1301.31 5888.78,4671.49 5888.78,8452.74 0,4974.23 -4033.74,9007.98 -9007.97,9007.98 -1461.41,0 -2893.63,-350.99 -4185.51,-1029.83 -3527.66,-1301.31 -5888.78,-4671.5 -5888.78,-8452.75 0,-444.29 32.18,-881.07 94.33,-1308.14z"/>
  <path class="fil1 str0" d="M16161.56 4806.66c2741,954.03 4708.09,3560.66 4708.09,6626.72 0,3874.17 -3140.65,7014.82 -7014.81,7014.82 -1222.62,0 -2372.18,-312.78 -3373.04,-862.69 -2741,-954.03 -4708.09,-3560.67 -4708.09,-6626.73 0,-3874.16 3140.65,-7014.81 7014.82,-7014.81 1222.61,0 2372.17,312.78 3373.03,862.69z"/>
  <circle class="fil2 str1" cx="13854.84" cy="11433.38" r="7014.81"/>
  <circle class="fil3 str1" cx="12788.53" cy="10958.78" r="7014.81"/>
  <line class="fil4 str2" x1="12788.53" y1="10958.78" x2="12788.53" y2= "6096" />
  <line class="fil4 str2" x1="16333.11" y1="10958.78" x2="12788.53" y2= "10958.78" />
  <line class="fil4 str2" x1="4019.12" y1="8535.99" x2="2091.54" y2= "8218.05" />
  <line class="fil4 str2" x1="5117.76" y1="6039.59" x2="3439.93" y2= "5038.92" />
  <line class="fil4 str2" x1="7028.14" y1="4063.62" x2="5839.43" y2= "2513.34" />
 </g>
</svg>
